<?xml version="1.0" standalone="no"?>
<!DOCTYPE svg PUBLIC "-//W3C//DTD SVG 20010904//EN"
 "http://www.w3.org/TR/2001/REC-SVG-20010904/DTD/svg10.dtd">
<svg version="1.0" xmlns="http://www.w3.org/2000/svg"
 width="228.000000pt" height="228.000000pt" viewBox="0 0 228.000000 228.000000"
 preserveAspectRatio="xMidYMid meet">
<metadata>
Created by potrace 1.11, written by Peter Selinger 2001-2013
</metadata>
<g transform="translate(0.000000,228.000000) scale(0.100000,-0.100000)"
fill="#000000" stroke="none">
<path d="M915 1699 c-338 -32 -659 -158 -808 -318 -137 -146 -138 -319 -2
-469 114 -127 330 -231 592 -286 646 -135 1374 46 1549 385 24 46 28 67 28
134 1 69 -3 88 -27 134 -155 294 -731 476 -1332 420z m503 -100 c278 -47 490
-137 619 -264 60 -60 74 -79 88 -129 22 -76 10 -145 -39 -219 -38 -57 -118
-123 -171 -141 l-34 -12 34 -13 c43 -15 39 -24 -23 -52 -130 -59 -387 -120
-574 -135 l-88 -7 0 27 c0 33 19 41 120 50 196 17 491 104 486 143 -1 8 -8 18
-15 22 -8 6 4 19 38 41 56 36 103 90 126 144 20 47 19 130 -2 174 -68 145
-356 282 -676 322 -124 16 -404 8 -503 -14 -118 -25 -294 -93 -294 -113 0 -12
95 8 159 34 36 14 88 32 115 39 60 16 221 29 190 15 -19 -9 -42 -31 -31 -31 2
0 19 8 37 17 24 12 35 13 38 5 2 -7 11 -12 20 -12 8 0 24 -7 34 -17 14 -13 18
-13 18 -2 0 24 -17 42 -34 36 -8 -3 -18 -2 -21 3 -3 5 33 9 80 9 47 0 84 -3
81 -8 -3 -4 -19 -6 -36 -3 -25 4 -30 1 -30 -17 0 -22 14 -28 25 -11 6 10 55
10 52 0 -1 -3 5 -16 12 -28 16 -30 8 -38 -24 -24 -14 6 -25 8 -25 3 0 -5 10
-11 22 -15 17 -4 20 -8 11 -17 -8 -8 -17 -7 -36 6 -25 16 -25 16 -20 -5 5 -19
2 -21 -28 -17 -25 3 -34 8 -33 21 2 15 0 16 -19 3 -41 -27 -32 -37 35 -39 l63
-2 -57 -3 c-44 -3 -68 1 -105 19 -68 32 -67 32 -58 19 14 -24 87 -70 101 -64
15 5 44 -13 44 -28 0 -4 -9 -11 -20 -14 -20 -6 -20 -7 2 -31 36 -37 63 -30 60
16 0 3 13 6 30 6 17 1 33 7 37 13 11 17 92 -3 109 -26 7 -10 9 -19 3 -21 -15
-5 12 -52 30 -52 12 0 18 11 21 39 2 22 2 38 -1 36 -2 -3 -15 5 -29 15 -13 11
-33 20 -42 20 -11 0 -19 10 -22 24 -4 18 1 27 20 35 19 9 22 14 12 26 -6 7
-18 11 -27 8 -12 -5 -14 0 -9 24 6 27 3 34 -26 57 -18 14 -27 26 -20 26 21 0
74 -58 66 -71 -4 -8 -3 -9 4 -5 20 12 13 33 -19 60 l-31 26 33 0 c48 0 160
-21 154 -29 -2 -4 9 -5 25 -3 20 3 35 -3 50 -18 16 -16 24 -19 30 -10 5 8 10
4 14 -12 5 -15 9 -18 13 -10 4 10 9 9 24 -4 21 -19 16 -36 -8 -27 -10 4 -14 2
-9 -5 3 -6 -1 -15 -9 -20 -15 -8 -15 -10 0 -22 14 -11 17 -10 21 8 4 11 12 23
20 26 8 3 14 15 14 26 0 28 9 26 102 -21 110 -55 218 -157 218 -205 0 -26 4
-33 23 -36 34 -5 34 -48 0 -82 -39 -38 -54 -54 -87 -93 -39 -46 -106 -84 -134
-76 -12 3 -22 9 -22 13 0 4 -18 12 -40 19 -43 13 -62 31 -33 31 14 1 13 4 -7
15 -17 9 -27 10 -31 3 -4 -7 -18 -8 -35 -3 l-29 8 30 7 c24 6 19 7 -25 8 -57
1 -112 16 -167 48 -32 19 -32 19 -53 -3 -11 -12 -20 -24 -20 -26 0 -7 35 -4
46 5 17 13 44 -1 44 -23 0 -10 5 -19 11 -19 6 0 9 -7 5 -15 -3 -8 -1 -15 5
-15 5 0 12 6 15 14 11 29 40 25 163 -23 152 -60 243 -102 216 -99 -11 0 -42
-9 -69 -21 -46 -20 -257 -81 -283 -81 -7 0 -13 9 -13 20 0 13 7 20 19 20 10 0
29 8 42 19 25 19 92 34 82 18 -3 -5 3 -7 13 -4 11 3 45 13 77 22 36 10 57 21
54 28 -2 7 -15 11 -28 10 -98 -11 -125 -17 -136 -31 -12 -14 -13 -14 -13 4 -1
18 -1 18 -11 1 -6 -9 -15 -15 -20 -12 -5 4 -7 11 -4 16 4 5 -6 8 -22 8 -17 -1
-21 -3 -11 -6 15 -4 15 -7 5 -17 -19 -20 -67 -28 -83 -15 -11 9 -14 8 -14 -3
0 -20 -20 -37 -36 -31 -7 2 -10 11 -8 18 4 8 -10 23 -35 37 -48 27 -52 38 -12
38 29 0 57 21 44 33 -3 4 1 7 9 7 9 0 18 7 21 15 5 11 1 12 -18 5 -16 -6 -34
-6 -50 0 -15 6 -26 6 -30 0 -4 -6 -1 -10 5 -10 6 0 8 -5 5 -11 -5 -6 -12 -4
-20 8 -9 12 -10 22 -4 29 7 8 5 14 -3 17 -11 3 -11 8 0 26 10 17 10 21 0 21
-34 -1 -40 -17 -38 -111 0 -52 0 -128 -2 -169 l-3 -75 -135 -3 c-159 -4 -253
8 -393 49 -242 72 -409 179 -475 304 -36 68 -37 178 -3 245 98 189 361 319
711 350 132 12 363 2 498 -21z m-126 -776 c13 -16 31 -29 38 -31 18 -4 30 -22
29 -42 -1 -10 -3 -9 -6 3 -4 15 -11 17 -36 11 -18 -4 -37 -14 -44 -23 -11 -15
-12 -14 -13 2 0 9 -5 17 -11 17 -5 0 -7 5 -3 11 3 6 14 9 24 6 28 -7 32 20 7
38 -12 8 -17 15 -12 15 6 0 3 5 -5 10 -8 5 -10 10 -3 10 6 0 22 -12 35 -27z"/>
<path d="M983 1478 c-4 -7 -8 -28 -9 -45 -1 -28 2 -33 20 -33 12 0 31 7 42 15
18 14 18 14 -3 8 -26 -6 -43 21 -24 40 6 6 11 15 11 19 0 13 -28 9 -37 -4z"/>
<path d="M791 1460 c-9 -5 -7 -9 8 -13 12 -3 23 -2 26 3 7 11 -19 20 -34 10z"/>
<path d="M1406 1444 c-9 -9 -24 -13 -35 -9 -34 10 -33 -22 1 -34 40 -14 61
-14 52 1 -5 7 -3 8 7 3 7 -5 22 -10 31 -10 21 -2 45 22 34 32 -4 4 -11 2 -15
-5 -6 -10 -13 -11 -34 -1 -30 13 -36 29 -11 29 8 0 12 -4 9 -10 -8 -12 5 -13
23 -1 10 6 8 10 -10 14 -32 9 -35 9 -52 -9z"/>
<path d="M690 1437 c-52 -9 -53 -10 -27 -19 15 -5 25 -14 21 -19 -3 -5 -1 -9
5 -9 5 0 14 8 20 17 8 15 14 16 43 5 19 -6 42 -12 52 -12 9 0 19 -7 22 -15 4
-8 17 -15 31 -15 21 0 23 2 13 14 -11 14 -77 48 -110 58 -8 2 -40 0 -70 -5z"/>
<path d="M885 1430 c3 -5 13 -10 21 -10 8 0 12 5 9 10 -3 6 -13 10 -21 10 -8
0 -12 -4 -9 -10z"/>
<path d="M716 1394 c-9 -23 -2 -28 13 -10 7 8 8 17 3 20 -6 3 -13 -1 -16 -10z"/>
<path d="M326 1391 c-11 -18 7 -51 28 -51 13 0 25 -2 27 -4 5 -5 -5 -155 -15
-233 -5 -40 -4 -42 30 -53 45 -15 98 -4 89 18 -14 33 -17 99 -6 106 6 4 42 8
80 9 l69 2 -2 30 -1 30 -73 -4 -73 -3 6 38 c11 66 9 64 90 64 l75 0 0 30 0 30
-160 -1 c-88 0 -162 -4 -164 -8z"/>
<path d="M754 1374 c-18 -14 -18 -14 5 -3 20 10 26 9 37 -5 8 -11 14 -13 19
-7 18 30 -28 41 -61 15z"/>
<path d="M1693 1372 c-13 -2 -23 -8 -23 -13 0 -5 -9 -4 -20 3 -23 15 -34 6
-44 -34 -5 -21 -3 -28 9 -28 8 0 15 6 15 14 0 26 30 27 42 1 10 -22 18 -25 60
-25 52 0 56 6 33 49 -15 30 -35 39 -72 33z"/>
<path d="M1439 1353 c-10 -2 -16 -15 -17 -33 -1 -32 -18 -70 -32 -70 -5 0 -5
-12 -1 -27 5 -16 5 -37 0 -48 -15 -38 -10 -91 11 -110 33 -30 98 -30 152 -2
l46 25 23 -24 c30 -32 82 -32 124 0 28 21 33 23 55 10 14 -7 39 -13 56 -14 37
0 97 38 102 64 4 18 2 17 -23 -2 -33 -26 -63 -28 -72 -6 -3 9 2 39 12 66 9 27
15 51 12 54 -5 5 -84 21 -147 30 -52 8 -100 -28 -123 -92 -16 -43 -25 -54 -64
-73 -52 -25 -73 -17 -73 28 0 56 10 72 44 69 27 -3 30 0 30 22 1 20 -5 26 -27
28 -32 4 -34 16 -6 61 16 27 18 36 7 42 -13 9 -61 10 -89 2z m346 -123 c12
-19 -26 -120 -51 -137 -14 -8 -27 -13 -31 -9 -14 14 -5 67 21 110 26 44 48 57
61 36z"/>
<path d="M1720 1129 c0 -5 5 -7 10 -4 6 3 10 8 10 11 0 2 -4 4 -10 4 -5 0 -10
-5 -10 -11z"/>
<path d="M1304 1331 c3 -5 15 -7 26 -4 28 7 25 13 -6 13 -14 0 -23 -4 -20 -9z"/>
<path d="M675 1320 c3 -5 8 -10 11 -10 2 0 4 5 4 10 0 6 -5 10 -11 10 -5 0 -7
-4 -4 -10z"/>
<path d="M834 1319 c-13 -22 12 -30 31 -9 18 19 18 20 -3 20 -11 0 -24 -5 -28
-11z"/>
<path d="M533 1310 c-25 -10 -31 -40 -8 -40 8 0 26 5 40 12 22 10 28 9 35 -2
5 -8 12 -12 15 -8 8 7 -35 48 -49 47 -6 0 -21 -4 -33 -9z"/>
<path d="M650 1299 c0 -5 5 -7 10 -4 6 3 10 8 10 11 0 2 -4 4 -10 4 -5 0 -10
-5 -10 -11z"/>
<path d="M694 1288 c-7 -11 21 -38 41 -38 20 0 48 27 41 38 -4 7 -22 12 -41
12 -19 0 -37 -5 -41 -12z"/>
<path d="M796 1267 c-5 -20 8 -47 24 -47 4 0 12 11 18 24 9 20 7 25 -13 34
-20 9 -24 8 -29 -11z"/>
<path d="M335 1244 c-22 -53 -21 -143 4 -198 39 -90 149 -172 309 -232 156
-58 235 -74 399 -81 138 -6 153 -4 153 10 0 10 -8 17 -17 17 -15 0 -15 2 -4 9
8 5 11 16 8 25 -7 19 -28 22 -24 4 1 -8 -12 -14 -35 -16 -21 -2 -38 -7 -38
-12 0 -5 16 -8 35 -6 19 1 35 -1 35 -6 0 -4 -20 -8 -45 -8 -33 0 -43 3 -39 14
3 8 -4 16 -18 20 -22 7 -22 7 -3 16 16 7 17 9 3 9 -22 1 -48 -9 -48 -19 0 -5
12 -13 28 -19 l27 -11 -30 6 c-35 7 -55 21 -55 40 0 8 -4 14 -10 14 -5 0 -10
11 -10 25 0 21 9 30 43 45 23 11 49 19 57 19 8 0 -5 -8 -30 -17 -31 -12 -46
-24 -48 -38 -4 -26 13 -33 53 -23 24 5 25 7 8 8 -48 2 -18 32 46 46 29 6 33 5
28 -9 -8 -20 6 -21 23 -1 10 12 8 16 -11 24 -13 4 -31 6 -39 4 -8 -2 -4 3 10
11 l25 15 -36 1 c-20 0 -56 -7 -80 -15 -28 -10 -45 -12 -47 -5 -6 16 -19 12
-25 -9 -6 -25 -64 -54 -71 -35 -3 9 -17 12 -45 8 -25 -3 -44 0 -53 9 -7 7 -24
21 -38 30 -24 15 -26 15 -38 -3 -10 -16 -8 -20 7 -25 11 -3 23 -5 27 -4 18 5
63 -24 68 -44 4 -18 11 -19 63 -15 56 6 60 5 75 -22 l16 -28 -36 5 c-50 7
-195 51 -252 75 -25 11 -65 25 -90 32 -25 7 -44 17 -43 24 2 7 -5 12 -16 12
-18 0 -37 16 -41 35 -5 21 -47 62 -71 68 -13 3 -33 13 -44 20 -18 14 -19 19
-6 121 7 59 11 110 8 113 -3 3 -13 -12 -22 -33z"/>
<path d="M892 1263 c-27 -5 -50 -47 -58 -106 -5 -36 -11 -45 -36 -56 -42 -19
-56 -3 -42 47 6 20 13 44 15 52 3 11 -6 16 -37 18 -41 3 -41 2 -47 -35 -13
-76 -9 -103 17 -114 29 -14 89 -4 110 16 11 12 15 12 19 1 9 -22 72 -46 121
-46 26 0 73 11 105 24 l59 24 10 -23 c14 -31 54 -38 114 -20 59 17 98 49 98
80 0 12 -13 39 -30 61 -16 21 -30 49 -30 62 0 20 -5 22 -47 22 -27 0 -53 -4
-60 -8 -6 -4 -20 -32 -30 -62 -14 -43 -27 -61 -59 -83 -48 -33 -125 -47 -149
-27 -23 19 -18 30 15 30 69 0 139 54 124 96 -17 47 -86 65 -182 47z m103 -32
c12 -38 -29 -99 -60 -87 -11 4 -13 11 -5 31 6 14 14 36 20 50 11 29 36 33 45
6z m234 -85 c26 -46 23 -76 -6 -76 -28 0 -45 15 -41 36 2 13 -2 18 -14 16 -16
-3 -16 1 3 33 12 19 24 35 28 35 3 0 17 -20 30 -44z"/>
<path d="M1600 1254 c0 -17 22 -14 28 4 2 7 -3 12 -12 12 -9 0 -16 -7 -16 -16z"/>
<path d="M791 1167 c-7 -21 -10 -41 -7 -44 8 -8 28 47 23 66 -2 9 -9 -1 -16
-22z"/>
<path d="M1514 1171 c-2 -2 -4 -18 -4 -34 0 -22 4 -28 16 -23 9 3 18 6 20 6 2
0 4 8 4 17 0 9 3 13 7 10 6 -7 33 11 33 22 0 7 -69 9 -76 2z"/>
<path d="M517 1140 c-29 -28 -20 -39 18 -22 19 9 35 21 35 27 0 16 -34 13 -53
-5z"/>
<path d="M580 1150 c0 -5 5 -10 10 -10 6 0 10 5 10 10 0 6 -4 10 -10 10 -5 0
-10 -4 -10 -10z"/>
<path d="M610 1135 c-7 -9 -10 -18 -7 -22 8 -7 37 15 37 28 0 14 -16 11 -30
-6z"/>
<path d="M513 1083 c9 -2 23 -2 30 0 6 3 -1 5 -18 5 -16 0 -22 -2 -12 -5z"/>
<path d="M538 1063 c-9 -2 -19 -11 -22 -19 -8 -21 38 -36 91 -30 27 3 43 1 43
-6 0 -10 -58 -8 -160 7 l-35 5 34 -16 c47 -21 150 -29 195 -14 31 10 42 9 71
-4 36 -18 76 -14 95 10 7 7 9 18 5 24 -8 13 -52 13 -60 0 -3 -5 -12 -10 -18
-9 -9 0 -9 2 1 6 19 7 14 23 -7 23 -10 0 -35 -7 -54 -15 -20 -8 -42 -15 -49
-14 -7 0 0 5 16 11 l29 11 -24 12 c-19 11 -25 11 -34 -1 -10 -14 -100 -23
-112 -11 -4 4 2 14 13 22 19 14 14 17 -18 8z"/>
<path d="M1718 1021 c-77 -42 -58 -53 32 -19 25 9 34 18 32 31 -4 21 -6 21
-64 -12z"/>
<path d="M1050 1020 c0 -5 5 -10 11 -10 5 0 7 5 4 10 -3 6 -8 10 -11 10 -2 0
-4 -4 -4 -10z"/>
<path d="M1097 1013 c10 -31 35 -53 58 -53 11 0 26 -5 33 -12 9 -9 12 -7 14
10 0 12 1 27 2 33 1 11 -66 39 -96 39 -12 0 -16 -5 -11 -17z"/>
<path d="M1638 1013 c6 -2 18 -2 25 0 6 3 1 5 -13 5 -14 0 -19 -2 -12 -5z"/>
<path d="M1020 1001 c0 -5 -14 -9 -30 -9 -17 1 -33 -2 -37 -5 -3 -4 9 -7 28
-7 39 0 67 14 50 24 -6 4 -11 3 -11 -3z"/>
<path d="M798 951 c-48 -15 -68 -33 -25 -24 18 4 19 3 7 -6 -11 -8 -11 -11 -2
-11 7 0 22 9 34 20 21 20 49 17 29 -3 -6 -6 -11 -15 -11 -21 0 -5 6 -2 13 9
10 13 21 16 41 11 18 -4 25 -3 21 4 -3 5 -13 10 -21 10 -9 0 -12 5 -8 12 5 7
2 9 -9 5 -9 -3 -17 -3 -19 1 -2 4 -24 1 -50 -7z"/>
<path d="M510 941 c0 -10 36 -21 44 -14 3 3 3 10 0 14 -7 12 -44 12 -44 0z"/>
<path d="M1140 919 c0 -5 5 -7 10 -4 6 3 10 8 10 11 0 2 -4 4 -10 4 -5 0 -10
-5 -10 -11z"/>
<path d="M1180 920 c-13 -9 -13 -11 0 -20 10 -6 16 -6 18 0 7 20 -3 30 -18 20z"/>
<path d="M1510 920 c-11 -8 -8 -9 14 -6 16 3 31 8 34 11 10 9 -33 5 -48 -5z"/>
<path d="M1606 921 c-8 -12 2 -17 39 -19 17 -1 25 1 20 7 -16 15 -53 22 -59
12z"/>
<path d="M615 910 c3 -5 13 -10 21 -10 8 0 14 5 14 10 0 6 -9 10 -21 10 -11 0
-17 -4 -14 -10z"/>
<path d="M1164 864 c-19 -15 -19 -16 1 -9 11 4 26 8 33 8 6 0 12 4 12 9 0 13
-25 9 -46 -8z"/>
<path d="M1355 860 c3 -5 15 -10 26 -10 10 0 19 5 19 10 0 6 -12 10 -26 10
-14 0 -23 -4 -19 -10z"/>
<path d="M1178 823 c7 -3 16 -2 19 1 4 3 -2 6 -13 5 -11 0 -14 -3 -6 -6z"/>
</g>
</svg>
